<svg width="20" height="22" viewBox="0 0 20 22" fill="none" xmlns="http://www.w3.org/2000/svg">
<path d="M0 22V18H20V22H0ZM4 14H5.4L13.2 6.225L11.775 4.8L4 12.6V14ZM2 16V11.75L13.2 0.575C13.3833 0.391667 13.5958 0.25 13.8375 0.15C14.0792 0.05 14.3333 0 14.6 0C14.8667 0 15.125 0.05 15.375 0.15C15.625 0.25 15.85 0.4 16.05 0.6L17.425 2C17.625 2.18333 17.7708 2.4 17.8625 2.65C17.9542 2.9 18 3.15833 18 3.425C18 3.675 17.9542 3.92083 17.8625 4.1625C17.7708 4.40417 17.625 4.625 17.425 4.825L6.25 16H2Z" fill="#CDCED0"/>
<path d="M0 22V18H20V22H0ZM4 14H5.4L13.2 6.225L11.775 4.8L4 12.6V14ZM2 16V11.75L13.2 0.575C13.3833 0.391667 13.5958 0.25 13.8375 0.15C14.0792 0.05 14.3333 0 14.6 0C14.8667 0 15.125 0.05 15.375 0.15C15.625 0.25 15.85 0.4 16.05 0.6L17.425 2C17.625 2.18333 17.7708 2.4 17.8625 2.65C17.9542 2.9 18 3.15833 18 3.425C18 3.675 17.9542 3.92083 17.8625 4.1625C17.7708 4.40417 17.625 4.625 17.425 4.825L6.25 16H2Z" fill="black" fill-opacity="0.2"/>
</svg>
