<svg width="16" height="16" viewBox="0 0 16 16" fill="none" xmlns="http://www.w3.org/2000/svg">
<path d="M13.2114 13.2C13.6416 13.2 14.0081 13.568 14.0081 14C14.0081 14.432 13.6416 14.8 13.2114 14.8H3.65049C3.22024 14.8 2.85374 14.432 2.85374 14C2.85374 13.568 3.22024 13.2 3.65049 13.2H13.2114ZM13.2114 12H3.65049C2.55895 12 1.65863 12.904 1.65863 14C1.65863 15.096 2.55895 16 3.65049 16H13.2114C13.7397 16 14.2463 15.7893 14.6199 15.4142C14.9934 15.0391 15.2033 14.5304 15.2033 14C15.2033 13.4696 14.9934 12.9609 14.6199 12.5858C14.2463 12.2107 13.7397 12 13.2114 12ZM15.2033 7.2H12.813V4H8.82931L6.43909 7.2V11.2H16L15.2033 7.2ZM7.66607 7.2L9.22768 5.2H11.2195V7.2H7.66607ZM6.24787 1.128L2.26415 0L0.065143 7.864C-0.20575 8.888 0.391808 9.952 1.41961 10.24L2.34383 10.496L4.96511 8.232L1.87375 7.368L3.37163 1.968L5.59454 2.592C6.04071 2.824 7.00477 3.472 7.6103 4.296L8.43094 3.2H8.78151C7.77761 1.928 6.31957 1.168 6.24787 1.128Z" fill="#FFE100"/>
</svg>
